# xmcd
# 
# Track frame offsets:
#     150
#     20145
#     44920
#     69590
#     102060
# 
# Disc length: 1368
# 
# Revision: 11
# Processed by: cddbd v1.5.2PL0 Copyright (c) Steve Scherf et al.
# Submitted via: fre:ac v1.0.17
# 
DISCID=44055605
DTITLE=サザンオールスターズ - 愛と欲望の日々
DYEAR=2004
DGENRE=J-Pop
TTITLE0=愛と欲望の日々
TTITLE1=LONELY WOMAN
TTITLE2=イエローマン ～星の王子様～ (LIVE at ディファ有明)
TTITLE3=ラチエン通りのシスター (LIVE at ディファ有明)
TTITLE4=fuckCCCD
EXTD=
EXTT0=
EXTT1=
EXTT2=
EXTT3=
EXTT4=
PLAYORDER=
